<svg xmlns="http://www.w3.org/2000/svg" width="64" height="64" enable-background="new 0 0 64 64" viewBox="0 0 64 64"><path fill="#7FFFD4" d="M48 33c-1.5 1-17.583 1.333-20.25.17s0-5.17 0-5.17H20v8l31.5-.5L48 33zM12 41.167c-2-.833-2-1.583-2-3.167s1.5-2 1.5-2H7.585 4l4 8h43.5l1.584-1.083C51.835 43.833 14 42 12 41.167zM12 32.417C8 32 7.585 36 7.585 36l5.498-.667C10.749 34.333 12 32.417 12 32.417zM23 24.828c3 2.328 5.828 0 5.828 0l-5.656-5.656C23.172 19.172 20 22.5 23 24.828z"/><path fill="#01627C" d="M60.924,35.617C60.77,35.244,60.404,35,60,35h-7.586l-3-3l3.334-3.334
			c0.912-0.912-0.502-2.326-1.414-1.414L47.586,31H43v-3c0-0.552-0.447-1-1-1c-7.333,0-14.667,0-22,0c-0.553,0-1,0.448-1,1
			c0,2.333,0,4.667,0,7h-2.102c-0.694-3.41-4.746-5.092-7.653-3.169l-2.538-2.538c-0.912-0.912-2.326,0.502-1.414,1.414l2.536,2.536
			C7.475,33.779,7.23,34.375,7.103,35c-1.041,0-2.346-0.232-3.356,0.033c-1.46,0.383-0.324,2.047,0.052,2.799
			c1.103,2.205,2.205,4.41,3.308,6.615C7.275,44.786,7.621,45,8,45c9.632,0,19.264,0,28.895,0c4.693,0,9.388,0,14.081,0
			c0.331,0,0.663,0,0.994,0c0.649,0,1.15-0.707,1.569-1.125c2.081-2.081,4.162-4.163,6.244-6.244
			c0.308-0.308,0.615-0.616,0.924-0.924C60.993,36.421,61.079,35.991,60.924,35.617C60.77,35.244,61.079,35.991,60.924,35.617z
			 M21,29h20v2H21V29z M21,33c8.862,0,17.724,0,26.586,0l2,2H21V33z M9.872,33.882c1.548-1.526,4.212-0.935,4.943,1.118H9.183
			C9.33,34.586,9.557,34.202,9.872,33.882C10.449,33.313,9.557,34.202,9.872,33.882z M51.586,43H8.618l-3-6
			c8.295,0,16.589,0,24.884,0c9.027,0,18.056,0,27.084,0L51.586,43z"/><path fill="#01627C" d="M43.715 39H20.286c-1.29 0-1.29 2 0 2h23.429C45.005 41 45.005 39 43.715 39zM56 47.08c-1.121 0-2.108.464-2.893 1.25-.743.745-1.268 1.865-2.213 2.375-2.128 1.149-3.344-2.064-4.77-3.003-2.14-1.409-4.383-.277-5.789 1.508-.617.784-1.243 1.709-2.348 1.709-1.183 0-1.824-1.062-2.485-1.885-1.439-1.791-3.82-2.707-5.85-1.188-1.332.997-2.663 4.198-4.748 2.741-.825-.577-1.314-1.551-2.02-2.258-.866-.869-1.978-1.329-3.213-1.239-1.089.079-2.004.624-2.734 1.412-.693.748-1.249 1.91-2.244 2.295-2.147.831-3.234-2.349-4.778-3.229-.759-.433-2.544-.98-2.88.245-.388 1.41 1.543 1.15 2.235 1.74.773.659 1.263 1.593 2.011 2.283.913.842 2.107 1.222 3.343 1.037 1.053-.157 1.9-.769 2.587-1.554.66-.756 1.25-1.931 2.301-2.186 2.146-.521 3.112 2.606 4.794 3.417 2.405 1.159 4.262-.42 5.676-2.192.637-.797 1.391-1.492 2.492-1.225 1.05.255 1.64 1.43 2.3 2.186 1.553 1.778 4.114 2.19 5.93.517 1.134-1.044 2.25-3.588 4.185-2.543.811.438 1.298 1.352 1.889 2.027.618.707 1.37 1.287 2.302 1.5 2.228.508 3.642-.875 4.909-2.461.273-.342.561-.694.923-.947.445-.311.865-.233 1.354-.367C57.357 48.744 57.133 47.08 56 47.08z"/><path fill="#01627C" d="M56 51.08c-1.121 0-2.108.464-2.893 1.25-.743.745-1.268 1.865-2.213 2.375-2.128 1.149-3.344-2.064-4.77-3.003-2.14-1.409-4.383-.277-5.789 1.508-.617.784-1.243 1.709-2.348 1.709-1.183 0-1.824-1.062-2.485-1.885-1.439-1.791-3.82-2.707-5.85-1.188-1.332.997-2.663 4.198-4.748 2.741-.825-.577-1.314-1.551-2.02-2.258-.866-.869-1.978-1.329-3.213-1.239-1.089.079-2.004.624-2.734 1.412-.693.748-1.249 1.91-2.244 2.295-2.147.831-3.234-2.349-4.778-3.229-.759-.433-2.544-.98-2.88.245-.388 1.41 1.543 1.15 2.235 1.74.773.659 1.263 1.593 2.011 2.283.913.842 2.107 1.222 3.343 1.037 1.053-.157 1.9-.769 2.587-1.554.66-.756 1.25-1.931 2.301-2.186 2.146-.521 3.112 2.606 4.794 3.417 2.405 1.159 4.262-.42 5.676-2.192.637-.797 1.391-1.492 2.492-1.225 1.05.255 1.64 1.43 2.3 2.186 1.553 1.778 4.114 2.19 5.93.517 1.134-1.044 2.25-3.588 4.185-2.543.811.438 1.298 1.352 1.889 2.027.618.707 1.37 1.287 2.302 1.5 2.228.508 3.642-.875 4.909-2.461.273-.342.561-.694.923-.947.445-.311.865-.233 1.354-.367C57.357 52.744 57.133 51.08 56 51.08zM29.535 24.121L27.414 22l1.293-1.293c.912-.912-.502-2.326-1.414-1.414L26 20.586l-2.121-2.121c-1.426-1.425-2.727 1.968-2.842 2.925-.184 1.519.348 3.063 1.429 4.144 1.082 1.082 2.626 1.613 4.145 1.43C27.566 26.848 30.961 25.545 29.535 24.121zM26 25c-2.161 0-3.649-2.334-2.708-4.294l4.002 4.002C26.896 24.899 26.455 25 26 25z"/></svg>