<svg xmlns="http://www.w3.org/2000/svg" xmlns:xlink="http://www.w3.org/1999/xlink" viewBox="0 0 750 500"><defs><clipPath id="freepik--clip-path--inject-34"><ellipse cx="415.01" cy="273.58" rx="18.59" ry="18.74" style="fill:none"></ellipse></clipPath><clipPath id="freepik--clip-path-2--inject-34"><ellipse cx="505.55" cy="273.58" rx="18.59" ry="18.74" style="fill:none"></ellipse></clipPath><clipPath id="freepik--clip-path-4--inject-34"><ellipse cx="589.13" cy="273.58" rx="18.59" ry="18.74" style="fill:none"></ellipse></clipPath></defs><g id="freepik--background-complete--inject-34"><path d="M580.56,135a1.52,1.52,0,0,1-.16,1.35,7,7,0,0,1-.55.94q-.33.54-.78,1.17c-1.2,1.68-2.91,4-4.8,7a118.05,118.05,0,0,0-11.68,25.18,142.37,142.37,0,0,0-6.22,27.3c-1,7.15-1.09,11.83-2.56,12.15-.69.14-1.61-.88-2.54-3a33,33,0,0,1-2.27-9.19c-1-7.92-.17-19.11,3.72-30.61s10-21,15.9-26.6a26.82,26.82,0,0,1,8-5.47c.55-.21,1-.37,1.48-.49a6.53,6.53,0,0,1,1.19-.16C580,134.57,580.38,134.71,580.56,135Z" style="fill:#e6e6e6"></path><path d="M544.29,139.92c-.66-.22-1.16-1-1.18-2.42a10.11,10.11,0,0,1,1.69-5.37,16.45,16.45,0,0,1,6.24-5.77,19.23,19.23,0,0,1,10.36-2.18,21,21,0,0,1,9.79,3.19,18.69,18.69,0,0,1,5.81,5.74,11.53,11.53,0,0,1,1.86,5.09c.08,1.33-.27,2.19-.91,2.52-1.32.65-3.38-.87-6.26-2.5a25.28,25.28,0,0,0-11-3.64,17.13,17.13,0,0,0-5.81.56,20.73,20.73,0,0,0-4.71,2C547.49,138.64,545.7,140.37,544.29,139.92Z" style="fill:#e6e6e6"></path><path d="M603.16,160.32c-.67.27-1.52,0-2.46-.79a13.87,13.87,0,0,1-2.86-3.74c-1.89-3.27-3.48-7.76-5.73-10.76a12.6,12.6,0,0,0-3.42-3.21,9.34,9.34,0,0,0-1.58-.76,6.59,6.59,0,0,0-1.65-.31,11.53,11.53,0,0,0-3.08.23,4.52,4.52,0,0,1-2.4.09c-.64-.27-1.11-1.13-.81-2.57a7.61,7.61,0,0,1,3.69-4.65,10.84,10.84,0,0,1,4-1.42,12.47,12.47,0,0,1,5,.35,16.19,16.19,0,0,1,8.57,6,22.35,22.35,0,0,1,3.74,8.45,30.77,30.77,0,0,1,.73,6.57,18.87,18.87,0,0,1-.41,4.36C604.25,159.29,603.83,160.05,603.16,160.32Z" style="fill:#e6e6e6"></path><path d="M580.15,166.37c-1.22-.8-1.47-2.69-1.62-4.94s-.18-4.92-.5-7.7-.88-5.39-1.26-7.62-.55-4.12.46-5.17,3.16-.89,5.64,1a16.6,16.6,0,0,1,2.53,22.09C583.43,166.52,581.31,167.15,580.15,166.37Z" style="fill:#e6e6e6"></path><path d="M594.4,120.94a3.83,3.83,0,0,1-1.42,1.77c-.65.52-1.38,1.09-2.11,1.71a29,29,0,0,0-2.31,2.21,20.9,20.9,0,0,0-2.25,2.92c-1.5,2.36-2.75,5.28-4.06,7.61s-2.74,3.87-4.18,3.71S575.48,139,575,136a16.83,16.83,0,0,1,0-5.35,17.74,17.74,0,0,1,2.5-6.67c3-4.79,8.11-7,11.89-6.78a6.62,6.62,0,0,1,4.16,1.49A2.19,2.19,0,0,1,594.4,120.94Z" style="fill:#e6e6e6"></path><path d="M605.1,131.65c-.67.27-1.84-1-4.09-1.37a12.4,12.4,0,0,0-4.1.07,33.28,33.28,0,0,0-5.4,1.35,39.56,39.56,0,0,0-9.14,4.71c-2.27,1.51-3.72,2.63-4.34,2.2s-.13-2.36,1.79-4.86a21.65,21.65,0,0,1,10-7,22.51,22.51,0,0,1,6.73-1.22,11.46,11.46,0,0,1,5.88,1.32,6.28,6.28,0,0,1,2.82,3.08C605.59,130.91,605.42,131.51,605.1,131.65Z" style="fill:#e6e6e6"></path><path d="M562.32,120.42c-.08-.34.16-.76.77-1.14a5.33,5.33,0,0,1,2.85-.65,10.85,10.85,0,0,1,8.09,4.58,15.73,15.73,0,0,1,2.93,8.14c.13,2.13-.22,3.48-.91,3.67s-1.62-.89-2.62-2.62a60.34,60.34,0,0,0-3.58-6.1,14.65,14.65,0,0,0-4.68-4.07C563.75,121.43,562.5,121.14,562.32,120.42Z" style="fill:#e6e6e6"></path><path d="M556.9,148.26c-.35,0-.74-.26-1-.93a5.57,5.57,0,0,1-.24-3,10.82,10.82,0,0,1,6.09-7.54,14.62,14.62,0,0,1,5-1.35,15,15,0,0,1,4,.18c2.22.41,3.48,1.16,3.45,1.86s-1.36,1.3-3.34,1.82a38.08,38.08,0,0,0-6.89,2.18,13.27,13.27,0,0,0-4.89,4.11C558.07,146.91,557.65,148.17,556.9,148.26Z" style="fill:#e6e6e6"></path><path d="M526.37,153.58a1,1,0,0,0,.1.81,3.85,3.85,0,0,0,.33.56c.13.22.29.46.47.71.72,1,1.76,2.39,2.9,4.19a71,71,0,0,1,7,15.18A85.58,85.58,0,0,1,541,191.47c.57,4.31.65,7.13,1.54,7.32.42.09,1-.52,1.53-1.78a19.9,19.9,0,0,0,1.37-5.53A43.38,43.38,0,0,0,543.15,173c-2.3-6.93-6-12.66-9.58-16a16.35,16.35,0,0,0-4.82-3.29,8.49,8.49,0,0,0-.89-.3,3.52,3.52,0,0,0-.72-.09C526.74,153.3,526.48,153.39,526.37,153.58Z" style="fill:#e6e6e6"></path><path d="M548.23,156.53c.39-.13.7-.63.71-1.46a6.13,6.13,0,0,0-1-3.24,9.92,9.92,0,0,0-3.76-3.48,11.63,11.63,0,0,0-6.24-1.3A12.68,12.68,0,0,0,532,149a11.22,11.22,0,0,0-3.5,3.47,6.77,6.77,0,0,0-1.12,3.06c0,.8.16,1.32.55,1.52.79.39,2-.52,3.77-1.51a15.15,15.15,0,0,1,6.61-2.19,10.3,10.3,0,0,1,3.5.34,12.51,12.51,0,0,1,2.84,1.2C546.3,155.76,547.38,156.8,548.23,156.53Z" style="fill:#e6e6e6"></path><path d="M512.76,168.82c.4.16.91,0,1.48-.48a8.64,8.64,0,0,0,1.73-2.25c1.13-2,2.09-4.67,3.45-6.48a7.5,7.5,0,0,1,2.06-1.94,5.84,5.84,0,0,1,.95-.46,4.11,4.11,0,0,1,1-.18,7.27,7.27,0,0,1,1.85.13,2.69,2.69,0,0,0,1.45.06c.38-.16.66-.68.48-1.55a4.57,4.57,0,0,0-2.22-2.8,6.64,6.64,0,0,0-2.44-.86,7.53,7.53,0,0,0-3,.22,9.69,9.69,0,0,0-5.16,3.64,13.52,13.52,0,0,0-2.26,5.09,18.24,18.24,0,0,0-.43,4,11,11,0,0,0,.24,2.62A1.74,1.74,0,0,0,512.76,168.82Z" style="fill:#e6e6e6"></path><path d="M526.62,172.47c.74-.49.89-1.63,1-3s.11-3,.3-4.64.53-3.25.76-4.59.33-2.48-.28-3.12-1.91-.53-3.4.63a10,10,0,0,0-1.52,13.31C524.64,172.55,525.92,172.94,526.62,172.47Z" style="fill:#e6e6e6"></path><path d="M518,145.09a2.41,2.41,0,0,0,.86,1.07c.39.31.83.66,1.27,1a15.32,15.32,0,0,1,1.39,1.33,12.09,12.09,0,0,1,1.36,1.76c.91,1.42,1.66,3.18,2.45,4.58s1.65,2.34,2.52,2.24,1.56-1.14,1.86-2.93a9.94,9.94,0,0,0,0-3.22,10.72,10.72,0,0,0-1.5-4,8.39,8.39,0,0,0-7.17-4.09,4.13,4.13,0,0,0-2.51.9A1.34,1.34,0,0,0,518,145.09Z" style="fill:#e6e6e6"></path><path d="M511.59,151.55c.4.16,1.11-.6,2.46-.83a7.44,7.44,0,0,1,2.48,0,20.63,20.63,0,0,1,3.25.82,23.88,23.88,0,0,1,5.5,2.83c1.37.91,2.25,1.59,2.62,1.33s.08-1.42-1.08-2.93a13.07,13.07,0,0,0-6-4.2,13.72,13.72,0,0,0-4.06-.73,6.83,6.83,0,0,0-3.54.79,3.85,3.85,0,0,0-1.7,1.85C511.3,151.1,511.4,151.46,511.59,151.55Z" style="fill:#e6e6e6"></path><path d="M537.36,144.78c0-.21-.09-.46-.46-.69a3.21,3.21,0,0,0-1.72-.39,6.52,6.52,0,0,0-4.87,2.76,9.44,9.44,0,0,0-1.77,4.9c-.08,1.29.14,2.1.55,2.22s1-.54,1.58-1.59a38,38,0,0,1,2.16-3.67,8.81,8.81,0,0,1,2.82-2.45C536.5,145.39,537.25,145.21,537.36,144.78Z" style="fill:#e6e6e6"></path><path d="M540.63,161.56c.21,0,.44-.16.63-.57a3.33,3.33,0,0,0,.14-1.83,6.5,6.5,0,0,0-3.67-4.54,8.72,8.72,0,0,0-3-.82,9.28,9.28,0,0,0-2.43.11c-1.33.25-2.09.7-2.08,1.13s.82.77,2,1.09a23.32,23.32,0,0,1,4.15,1.31,8,8,0,0,1,3,2.48C539.93,160.74,540.18,161.5,540.63,161.56Z" style="fill:#e6e6e6"></path><path d="M99.72,318.42c-7.83.3-15.19,10.41-19.79,10.79s-12.94-5.07-18-5.94-13.56-.19-13.56-.19c10.47-29.25,25-62.46,55.09-70.37,27.43-7.23,54.45,10.24,81.47,18.87,42.31,13.51,88.75,5.12,130.3-10.58s80.12-38.43,121.4-54.81,87.19-26.28,130.11-14.86c32.44,8.62,60.82,28.91,84,53.14S692.58,296.93,711,325c0,0-9.28,5.73-14.49,4.26s-8.49-7.3-16.44-7.3-25.86,11-32.23,9.64-9-2.25-13.29-5-8.06-7.54-14.85-7.2" style="fill:#e6e6e6"></path><path d="M438,386.69c-.91.63-.6,2.16.29,2.81a5.89,5.89,0,0,0,3.17.73,4.43,4.43,0,0,1,3.06,1c.93,1,.94,2.67,2.06,3.42s2.36.27,3.38.86a3.54,3.54,0,0,1,1.4,2.36,6.77,6.77,0,0,0,.93,2.64,1.79,1.79,0,0,0,2.47.5c.82-.74.35-2.07.36-3.17,0-2.2,2.09-3.73,3.33-5.54A8.06,8.06,0,0,0,450,379.9c-4.49,1-7.44,5.69-11.92,6.79" style="fill:#e6e6e6"></path><path d="M442.87,390.41a2.72,2.72,0,0,0-.74.54,3.23,3.23,0,0,0-.56.91c-.16.4-.29.87-.51,1.4a3,3,0,0,1-1.18,1.46,6.75,6.75,0,0,1-1.95.81,8.24,8.24,0,0,0-2.05.8,2.67,2.67,0,0,0-1.18,1.84,10.15,10.15,0,0,1-.65,2.41,2.28,2.28,0,0,1-.88.94,3.41,3.41,0,0,1-1.14.38,16.38,16.38,0,0,0-2,.3,3.14,3.14,0,0,0-1.4.91,3.64,3.64,0,0,0-.92,2.27c0,.59.1.92.06.93a1.7,1.7,0,0,1-.26-.93,3.64,3.64,0,0,1,.84-2.51,3.44,3.44,0,0,1,1.55-1.08,13.72,13.72,0,0,1,2.05-.36,2.13,2.13,0,0,0,1.65-1.08,10.86,10.86,0,0,0,.59-2.3,4,4,0,0,1,.48-1.23,3,3,0,0,1,.93-.92,8.35,8.35,0,0,1,2.19-.83,7,7,0,0,0,1.86-.71,2.69,2.69,0,0,0,1.08-1.25c.22-.48.38-1,.58-1.37a3.25,3.25,0,0,1,.67-.94C442.47,390.36,442.88,390.38,442.87,390.41Z" style="fill:#e6e6e6"></path><path d="M451.11,395.51a2.9,2.9,0,0,0-.74.54,3.39,3.39,0,0,0-.56.92c-.16.39-.29.86-.5,1.39a3.09,3.09,0,0,1-1.18,1.46,7.12,7.12,0,0,1-2,.82,8.37,8.37,0,0,0-2.05.79,2.73,2.73,0,0,0-1.18,1.84,10.15,10.15,0,0,1-.65,2.41,2.28,2.28,0,0,1-.88.94,3.36,3.36,0,0,1-1.13.38,18.42,18.42,0,0,0-2,.3,3,3,0,0,0-1.39.91,3.61,3.61,0,0,0-.93,2.27c0,.59.1.92.06.94a1.72,1.72,0,0,1-.26-.94,3.67,3.67,0,0,1,.85-2.51,3.41,3.41,0,0,1,1.54-1.08,15.41,15.41,0,0,1,2.05-.36,2.1,2.1,0,0,0,1.65-1.08,10.69,10.69,0,0,0,.6-2.3,4,4,0,0,1,.48-1.23,2.92,2.92,0,0,1,.93-.92,8.44,8.44,0,0,1,2.19-.83,7.06,7.06,0,0,0,1.85-.71,2.65,2.65,0,0,0,1.08-1.25c.22-.48.38-1,.58-1.36a3.16,3.16,0,0,1,.67-.94C450.71,395.46,451.12,395.49,451.11,395.51Z" style="fill:#e6e6e6"></path><path d="M446.57,394.66s.05.1,0,.3a1.28,1.28,0,0,1-.39.8,8.74,8.74,0,0,1-3,1.1c-.3.09-.7.15-1,.26a1.75,1.75,0,0,0-.74.67,20.76,20.76,0,0,0-1,2.25,2.94,2.94,0,0,1-1,1.09,5,5,0,0,1-1.32.63,16,16,0,0,0-2.73,1,3,3,0,0,0-1.34,2.28,4.68,4.68,0,0,1-1.06,2.65,4.12,4.12,0,0,1-2.47.79,3.66,3.66,0,0,0-1.94.62,3.58,3.58,0,0,0-1.42,2.56,6.59,6.59,0,0,0,.05,1.13s-.06-.09-.13-.28a2.82,2.82,0,0,1-.13-.86,3.71,3.71,0,0,1,1.41-2.84,3.93,3.93,0,0,1,2.11-.76,3.74,3.74,0,0,0,2.19-.71,4.3,4.3,0,0,0,.89-2.4,5.5,5.5,0,0,1,.45-1.45,2.81,2.81,0,0,1,1.12-1.17,14.22,14.22,0,0,1,2.83-1,3.23,3.23,0,0,0,2-1.46,18,18,0,0,1,1-2.28,2.18,2.18,0,0,1,.94-.79,9.72,9.72,0,0,1,1.05-.25,10,10,0,0,0,2.93-.89A1.62,1.62,0,0,0,446.57,394.66Z" style="fill:#e6e6e6"></path><path d="M312,399.48c-1,.71-.66,2.44.33,3.16a6.42,6.42,0,0,0,3.55.83,4.89,4.89,0,0,1,3.42,1.14c1,1.1,1,3,2.3,3.85,1.09.73,2.64.3,3.78,1a4,4,0,0,1,1.57,2.66,7.62,7.62,0,0,0,1,3,2,2,0,0,0,2.76.56c.92-.84.39-2.33.4-3.58,0-2.47,2.34-4.19,3.73-6.23a9.38,9.38,0,0,0,0-10.26,9.19,9.19,0,0,0-9.47-3.73c-5,1.17-8.33,6.41-13.34,7.65" style="fill:#e6e6e6"></path><path d="M317.49,403.67a3,3,0,0,0-.84.6,3.89,3.89,0,0,0-.63,1c-.18.44-.33,1-.57,1.57a3.41,3.41,0,0,1-1.31,1.64,8,8,0,0,1-2.18.91,8.73,8.73,0,0,0-2.3.9,3.06,3.06,0,0,0-1.34,2.09,11.44,11.44,0,0,1-.72,2.71,2.63,2.63,0,0,1-1,1,3.5,3.5,0,0,1-1.26.43,17.81,17.81,0,0,0-2.25.35,3.43,3.43,0,0,0-1.57,1,4.11,4.11,0,0,0-1,2.57c0,.67.13,1,.08,1.06s-.06-.08-.13-.26a3.34,3.34,0,0,1-.15-.8,4.15,4.15,0,0,1,.95-2.81,3.77,3.77,0,0,1,1.72-1.2,15.66,15.66,0,0,1,2.29-.41,2.39,2.39,0,0,0,1.87-1.23,11.75,11.75,0,0,0,.67-2.6,4.75,4.75,0,0,1,.53-1.38,3.34,3.34,0,0,1,1-1,9.22,9.22,0,0,1,2.44-.93,8.28,8.28,0,0,0,2.09-.81,3.07,3.07,0,0,0,1.21-1.43c.25-.54.42-1.08.64-1.54a3.59,3.59,0,0,1,.75-1.05C317.05,403.63,317.5,403.65,317.49,403.67Z" style="fill:#e6e6e6"></path><path d="M326.71,409.42a3,3,0,0,0-.84.6,3.89,3.89,0,0,0-.63,1c-.18.44-.33,1-.57,1.57a3.41,3.41,0,0,1-1.31,1.64,7.91,7.91,0,0,1-2.19.91,8.8,8.8,0,0,0-2.29.9,3.06,3.06,0,0,0-1.34,2.09,12.22,12.22,0,0,1-.72,2.71,2.59,2.59,0,0,1-1,1,3.58,3.58,0,0,1-1.25.43,17.81,17.81,0,0,0-2.25.35,3.43,3.43,0,0,0-1.57,1,4.11,4.11,0,0,0-1,2.57c0,.67.12,1,.08,1.06s-.06-.09-.13-.26a3.34,3.34,0,0,1-.15-.8,4.15,4.15,0,0,1,.95-2.81,3.8,3.8,0,0,1,1.72-1.21,17.11,17.11,0,0,1,2.29-.4,2.4,2.4,0,0,0,1.87-1.24A11.51,11.51,0,0,0,317,418a4.64,4.64,0,0,1,.53-1.38,3.23,3.23,0,0,1,1-1,9.22,9.22,0,0,1,2.44-.93,8.06,8.06,0,0,0,2.08-.81,3.09,3.09,0,0,0,1.22-1.43c.25-.54.42-1.08.64-1.54a3.42,3.42,0,0,1,.75-1.05C326.27,409.38,326.72,409.4,326.71,409.42Z" style="fill:#e6e6e6"></path><path d="M321.63,408.46s.05.11,0,.34a1.44,1.44,0,0,1-.44.89,4,4,0,0,1-1.4.68c-.56.19-1.21.37-1.94.55-.34.1-.78.16-1.09.29a2,2,0,0,0-.84.76,21.06,21.06,0,0,0-1.11,2.55,3.6,3.6,0,0,1-1.06,1.21,5.93,5.93,0,0,1-1.48.71,17.35,17.35,0,0,0-3.06,1.09,3.4,3.4,0,0,0-1.51,2.6,5.15,5.15,0,0,1-1.18,3,4.5,4.5,0,0,1-2.74.88,4.13,4.13,0,0,0-2.18.72,4.06,4.06,0,0,0-1.59,2.89,6.65,6.65,0,0,0,.07,1.28s-.07-.1-.14-.31a3,3,0,0,1-.13-1,4.16,4.16,0,0,1,1.57-3.18,4.48,4.48,0,0,1,2.35-.85,4.19,4.19,0,0,0,2.47-.8,4.85,4.85,0,0,0,1-2.71,6.05,6.05,0,0,1,.5-1.64,3.19,3.19,0,0,1,1.25-1.3,16.8,16.8,0,0,1,3.16-1.14,3.64,3.64,0,0,0,2.28-1.66,22,22,0,0,1,1.17-2.57,2.53,2.53,0,0,1,1-.88c.46-.16.8-.18,1.17-.28a11,11,0,0,0,3.28-1A1.79,1.79,0,0,0,321.63,408.46Z" style="fill:#e6e6e6"></path></g><g id="freepik--Jellyfish--inject-34"><path d="M370.77,376.87c-1.55,1.07-1,3.71.51,4.83s3.53,1.16,5.41,1.26,3.93.36,5.23,1.74c1.58,1.68,1.6,4.59,3.51,5.88,1.67,1.12,4,.47,5.78,1.48,1.39.81,2,2.49,2.39,4.07a11.67,11.67,0,0,0,1.6,4.55c1,1.29,3,1.95,4.21.86,1.4-1.28.59-3.56.61-5.47,0-3.78,3.57-6.41,5.7-9.53a14.31,14.31,0,0,0,0-15.66,14.06,14.06,0,0,0-14.47-5.71c-7.68,1.78-12.73,9.81-20.38,11.69" style="fill:#7A92CC"></path><path d="M379.11,383.26a3.83,3.83,0,0,0-1.32.88,5.72,5.72,0,0,0-1,1.59c-.29.67-.52,1.5-.89,2.38a5.07,5.07,0,0,1-2,2.45,12.06,12.06,0,0,1-3.31,1.36,13.67,13.67,0,0,0-3.56,1.4,4.27,4.27,0,0,0-1.37,1.37,6.56,6.56,0,0,0-.72,1.9,17.6,17.6,0,0,1-1.09,4.1,3.89,3.89,0,0,1-1.43,1.55,5.45,5.45,0,0,1-1.88.64,26.17,26.17,0,0,0-3.46.55,5.35,5.35,0,0,0-2.44,1.63,6.25,6.25,0,0,0-1.53,4,16,16,0,0,0,.16,1.61s-.07-.13-.16-.39a4.76,4.76,0,0,1-.21-1.21,6.3,6.3,0,0,1,1.46-4.22A5.62,5.62,0,0,1,357,403a25.68,25.68,0,0,1,3.51-.61,5.13,5.13,0,0,0,1.71-.6,3.31,3.31,0,0,0,1.24-1.35,17.77,17.77,0,0,0,1-4,6.92,6.92,0,0,1,.79-2.05,4.66,4.66,0,0,1,1.53-1.53,14.17,14.17,0,0,1,3.7-1.43,11.69,11.69,0,0,0,3.22-1.26,4.72,4.72,0,0,0,1.87-2.24c.38-.84.64-1.66,1-2.35a5.66,5.66,0,0,1,1.11-1.61,3,3,0,0,1,1.05-.66A1,1,0,0,1,379.11,383.26Z" style="fill:#7A92CC"></path><path d="M393.2,392.05a3.54,3.54,0,0,0-1.33.88,5.74,5.74,0,0,0-1,1.58c-.29.68-.52,1.5-.88,2.38a5.14,5.14,0,0,1-2,2.45,12,12,0,0,1-3.32,1.37,14,14,0,0,0-3.56,1.39,4.34,4.34,0,0,0-1.36,1.37,6.58,6.58,0,0,0-.73,1.9,17.79,17.79,0,0,1-1.08,4.11,3.82,3.82,0,0,1-1.44,1.54,5.38,5.38,0,0,1-1.88.64,30.3,30.3,0,0,0-3.46.55,5.38,5.38,0,0,0-2.43,1.64,6.25,6.25,0,0,0-1.54,4,11.85,11.85,0,0,0,.17,1.61,1.19,1.19,0,0,1-.17-.4,5.15,5.15,0,0,1-.2-1.21,6.25,6.25,0,0,1,1.46-4.22,5.64,5.64,0,0,1,2.58-1.81,25.68,25.68,0,0,1,3.51-.61,4.79,4.79,0,0,0,1.71-.6,3.38,3.38,0,0,0,1.24-1.35,18.32,18.32,0,0,0,1-4,6.92,6.92,0,0,1,.79-2.05,4.86,4.86,0,0,1,1.53-1.53,13.87,13.87,0,0,1,3.7-1.42,12.09,12.09,0,0,0,3.21-1.27,4.77,4.77,0,0,0,1.88-2.23c.38-.85.63-1.67,1-2.36a5.46,5.46,0,0,1,1.11-1.6,2.82,2.82,0,0,1,1-.67A.88.88,0,0,1,393.2,392.05Z" style="fill:#7A92CC"></path><path d="M385.43,390.58a1.06,1.06,0,0,1,0,.52,2.2,2.2,0,0,1-.67,1.32,6.12,6.12,0,0,1-2.13,1c-.87.28-1.86.55-3,.82-.53.15-1.19.24-1.69.44a3.26,3.26,0,0,0-1.34,1.2c-.75,1.06-1,2.5-1.7,3.89a5.16,5.16,0,0,1-1.59,1.8,9,9,0,0,1-2.23,1.07,24.73,24.73,0,0,0-4.71,1.69,4.25,4.25,0,0,0-1.65,1.74,9.11,9.11,0,0,0-.71,2.31,24.06,24.06,0,0,1-.53,2.38,4.66,4.66,0,0,1-1.21,2.08,4.32,4.32,0,0,1-2.05,1,18.29,18.29,0,0,1-2.08.3,6.2,6.2,0,0,0-3.38,1.14,6,6,0,0,0-1.85,2.31,6.19,6.19,0,0,0-.57,2.18,8.2,8.2,0,0,0,.16,1.95,2,2,0,0,1-.19-.48,5.31,5.31,0,0,1-.17-1.47,6,6,0,0,1,.51-2.3,6.17,6.17,0,0,1,1.89-2.48,5.11,5.11,0,0,1,1.61-.88,9.4,9.4,0,0,1,1.94-.4c1.3-.18,2.81-.25,3.85-1.24s1.27-2.61,1.57-4.21a9.46,9.46,0,0,1,.75-2.45,4.77,4.77,0,0,1,1.84-1.94,24.33,24.33,0,0,1,4.81-1.74,8.25,8.25,0,0,0,2.12-1,4.65,4.65,0,0,0,1.44-1.62c.68-1.28,1-2.76,1.77-3.9a3.73,3.73,0,0,1,1.54-1.33,4.24,4.24,0,0,1,.91-.24l.85-.19c1.11-.24,2.11-.49,3-.74a6.15,6.15,0,0,0,2.08-.88,2.22,2.22,0,0,0,.71-1.19C385.42,390.76,385.41,390.58,385.43,390.58Z" style="fill:#7A92CC"></path></g><g id="freepik--Sea--inject-34"><path d="M701.64,329.25a3.76,3.76,0,0,1-.93.4,6.5,6.5,0,0,1-2.9.13,11.27,11.27,0,0,1-4.24-1.74c-1.52-1-3.06-2.3-4.94-3.49a14.39,14.39,0,0,0-6.82-2.15,23.77,23.77,0,0,0-8.22,1.11c-5.7,1.59-11.23,5.24-17.82,7.33a21.69,21.69,0,0,1-10,1,25.08,25.08,0,0,1-8.69-3.41c-2.57-1.51-4.88-3.14-7.11-4.53a31,31,0,0,0-6.51-3.24,21,21,0,0,0-5.86-1.19,12.73,12.73,0,0,0-4.47.58,13,13,0,0,0-3.4,1.79s.05-.06.18-.17l.59-.48a9.9,9.9,0,0,1,2.57-1.33,12.45,12.45,0,0,1,4.54-.68,21.07,21.07,0,0,1,6,1.13,31,31,0,0,1,6.62,3.23c2.25,1.38,4.57,3,7.12,4.47a24.84,24.84,0,0,0,8.53,3.33,21.45,21.45,0,0,0,9.73-1c6.49-2.05,12-5.7,17.84-7.3a24,24,0,0,1,8.38-1.08,14.7,14.7,0,0,1,7,2.27c1.9,1.24,3.41,2.6,4.9,3.56a11.42,11.42,0,0,0,4.12,1.78,6.82,6.82,0,0,0,2.83,0C701.31,329.38,701.62,329.22,701.64,329.25Z" style="fill:#263238"></path><path d="M48.36,329a3.87,3.87,0,0,1,0-.75,5.71,5.71,0,0,1,.68-2,8.91,8.91,0,0,1,6.47-4.1,12.56,12.56,0,0,1,5.39.52,33,33,0,0,1,5.71,2.44,55.14,55.14,0,0,0,6.13,2.9,14.21,14.21,0,0,0,7,1,12.75,12.75,0,0,0,6.27-3.3,65,65,0,0,1,5.24-4.4,17.15,17.15,0,0,1,11.13-2.76,16.62,16.62,0,0,1,4.36,1,17.07,17.07,0,0,1,3,1.44,12,12,0,0,1,2.26,1.76c0,.05-.79-.65-2.36-1.58a17.43,17.43,0,0,0-3-1.34,16.68,16.68,0,0,0-4.29-.87,17,17,0,0,0-10.83,2.79c-1.77,1.22-3.37,2.85-5.18,4.4a20.3,20.3,0,0,1-3,2.15,10.64,10.64,0,0,1-3.57,1.27,14.67,14.67,0,0,1-7.3-1,55.23,55.23,0,0,1-6.17-2.95,32.77,32.77,0,0,0-5.61-2.45,12.05,12.05,0,0,0-5.22-.57,8.74,8.74,0,0,0-6.34,3.83A6.74,6.74,0,0,0,48.36,329Z" style="fill:#263238"></path><path d="M641.28,345.25s-.45.18-1.35.5l-1.68.6-2.4.54a9.42,9.42,0,0,1-1.47.23l-1.63.18a13.3,13.3,0,0,1-1.81.07h-2a50.07,50.07,0,0,1-9.29-1.48,110.24,110.24,0,0,1-11.19-3.7c-4-1.52-8.35-3.31-13.09-5a77.85,77.85,0,0,0-15.56-3.87,97.55,97.55,0,0,0-18-.79c-12.64.55-26.28,3.31-40.77,6.6-7.26,1.63-14.76,3.36-22.55,4.84a175.83,175.83,0,0,1-24.27,3.09,145.92,145.92,0,0,1-25.67-1.3c-8.69-1.15-17.47-2.91-26.37-4.82S404.29,337,395,335.4a177,177,0,0,0-28.36-3c-19.32-.3-38,2.67-56,5.21-9,1.29-17.88,2.5-26.62,3.28a218.94,218.94,0,0,1-25.69.9c-16.76-.44-32.56-2.47-47.32-4.31s-28.52-3.6-41.15-4.27a208,208,0,0,0-34.08.64c-2.5.22-4.9.61-7.21.93s-4.51.79-6.62,1.17-4.11.9-6,1.39-3.7,1-5.39,1.51a114.6,114.6,0,0,0-15.18,5.85l-3.78,1.92-1.29.64s.42-.24,1.27-.69l3.75-2a112.85,112.85,0,0,1,15.17-5.95c1.69-.53,3.5-1,5.39-1.53s3.92-.91,6-1.41,4.32-.84,6.63-1.2,4.71-.72,7.22-1a206.82,206.82,0,0,1,34.13-.72c12.65.65,26.42,2.36,41.18,4.21s30.56,3.84,47.28,4.26a220.32,220.32,0,0,0,25.64-.91c8.72-.79,17.58-2,26.59-3.29,18-2.55,36.73-5.53,56.11-5.24a177.9,177.9,0,0,1,28.44,3c9.27,1.63,18.32,3.67,27.21,5.58s17.67,3.66,26.34,4.82a145.94,145.94,0,0,0,25.58,1.31,175.42,175.42,0,0,0,24.2-3.06c7.78-1.47,15.28-3.19,22.55-4.81,14.5-3.28,28.16-6,40.84-6.55a97.16,97.16,0,0,1,18,.83,78.08,78.08,0,0,1,15.62,3.92c4.74,1.69,9.06,3.49,13.08,5a114.11,114.11,0,0,0,11.15,3.74,50.92,50.92,0,0,0,9.25,1.52h2a13.25,13.25,0,0,0,1.8-.05l1.63-.17a9.16,9.16,0,0,0,1.46-.21l2.4-.52,1.68-.57C640.81,345.39,641.28,345.25,641.28,345.25Z" style="fill:#263238"></path><path d="M600.61,420.7a19.75,19.75,0,0,0-2.68-2.34,16.82,16.82,0,0,0-9.16-2.68,28.8,28.8,0,0,0-6.65.63,46.54,46.54,0,0,0-7.34,2.29c-2.54,1-5.18,2.09-8,3.09a37.05,37.05,0,0,1-9,2.17,27.51,27.51,0,0,1-9.2-.76c-2.9-.68-5.62-1.6-8.22-2.41a56.12,56.12,0,0,0-7.46-1.91,26.17,26.17,0,0,0-6.67-.22,18.82,18.82,0,0,0-5.33,1.32,12.94,12.94,0,0,0-3.51,2.19,15.89,15.89,0,0,0-2.31,2.7s0-.08.1-.21l.36-.6a5.8,5.8,0,0,1,.66-.91,8.79,8.79,0,0,1,1-1.13,12.91,12.91,0,0,1,3.54-2.31,18.74,18.74,0,0,1,5.4-1.42,26.43,26.43,0,0,1,6.78.16,54.21,54.21,0,0,1,7.53,1.89c2.61.79,5.32,1.7,8.2,2.36a27.38,27.38,0,0,0,9,.74,37.21,37.21,0,0,0,8.84-2.13c2.78-1,5.42-2.1,8-3a44.32,44.32,0,0,1,7.42-2.27,28.93,28.93,0,0,1,6.75-.58,16.71,16.71,0,0,1,9.27,2.89,8.4,8.4,0,0,1,1.19,1,5.85,5.85,0,0,1,.79.81l.44.53C600.57,420.63,600.62,420.7,600.61,420.7Z" style="fill:#263238"></path><path d="M255.65,425.35A20.61,20.61,0,0,0,253,423a16.79,16.79,0,0,0-9.16-2.68,28.75,28.75,0,0,0-6.65.63,44,44,0,0,0-7.34,2.29c-2.55,1-5.18,2.09-8,3.08a37.05,37.05,0,0,1-9,2.17,27.48,27.48,0,0,1-9.19-.75c-2.9-.69-5.62-1.61-8.22-2.41a56.61,56.61,0,0,0-7.46-1.92,26.64,26.64,0,0,0-6.67-.22,18.73,18.73,0,0,0-5.33,1.33,12.7,12.7,0,0,0-3.51,2.19,16.6,16.6,0,0,0-2.32,2.69,2.35,2.35,0,0,1,.11-.21l.35-.59a6.49,6.49,0,0,1,.67-.92,8.77,8.77,0,0,1,1-1.12,12.69,12.69,0,0,1,3.53-2.31,18.82,18.82,0,0,1,5.41-1.42,26.86,26.86,0,0,1,6.78.15,56,56,0,0,1,7.53,1.89c2.61.8,5.32,1.7,8.2,2.37a27.34,27.34,0,0,0,9,.74,37,37,0,0,0,8.84-2.14c2.79-1,5.43-2.09,8-3.05a45.37,45.37,0,0,1,7.43-2.27,28.85,28.85,0,0,1,6.75-.57,16.72,16.72,0,0,1,9.27,2.88,9,9,0,0,1,1.19,1,6.3,6.3,0,0,1,.78.8l.45.54A1,1,0,0,1,255.65,425.35Z" style="fill:#263238"></path><path d="M595.53,381.66l-1.21.44-3.55,1.23C587.64,384.4,583,386,577,387.87s-13.37,4.06-22.09,5.93a128.66,128.66,0,0,1-30.1,3.16,86,86,0,0,1-17.5-2.1,106.08,106.08,0,0,1-18.14-6c-6.09-2.56-12.24-5.53-18.64-8.44a141.27,141.27,0,0,0-20.2-7.72c-1.77-.55-3.6-.9-5.42-1.34-.91-.2-1.85-.32-2.77-.48a24.17,24.17,0,0,0-2.8-.39c-1.89-.15-3.78-.37-5.7-.46l-5.77,0a111.49,111.49,0,0,0-23.36,3.86c-15.61,4.06-31.2,10.41-48.07,13.72-2.1.43-4.23.7-6.33,1.05s-4.24.43-6.35.65-4.24.09-6.34.14-4.2-.26-6.29-.38a121.7,121.7,0,0,1-24.08-5.27c-15.42-4.85-29.82-11-44.26-14.39-1.81-.39-3.6-.84-5.39-1.17l-5.38-.89a85.32,85.32,0,0,0-10.63-.7,84.4,84.4,0,0,0-20.11,3.12c-6.37,1.7-12.41,3.73-18.19,5.76l-16.6,5.89a268.13,268.13,0,0,1-29,8.64c-4.34,1-8.44,1.74-12.21,2.36-1.89.25-3.7.54-5.43.73s-3.38.39-4.95.5a144.37,144.37,0,0,1-14.45.48l-3.76-.15-1.28-.07s.44,0,1.29,0l3.75.1c3.3,0,8.18,0,14.43-.57,1.57-.12,3.21-.34,4.94-.52s3.53-.5,5.42-.75c3.76-.64,7.85-1.36,12.18-2.4a274.2,274.2,0,0,0,29-8.7L203,375.17c5.78-2,11.82-4.09,18.21-5.8a85,85,0,0,1,20.21-3.16,84.3,84.3,0,0,1,10.7.7l5.41.88c1.8.34,3.59.78,5.41,1.17,14.5,3.43,28.92,9.54,44.3,14.37a121.46,121.46,0,0,0,24,5.24c2.07.12,4.16.33,6.25.38s4.19,0,6.29-.14,4.21-.35,6.32-.65,4.21-.61,6.3-1c16.8-3.3,32.39-9.64,48-13.7a111.66,111.66,0,0,1,23.47-3.87h5.81c1.93.08,3.83.31,5.73.46a26.76,26.76,0,0,1,2.83.4c.93.16,1.87.29,2.79.49,1.83.44,3.67.79,5.45,1.35A139.65,139.65,0,0,1,470.76,380c6.4,2.91,12.54,5.89,18.62,8.45a106.53,106.53,0,0,0,18.06,6,85.21,85.21,0,0,0,17.42,2.12,128.5,128.5,0,0,0,30-3.07c8.72-1.84,16.09-4,22.09-5.85s10.62-3.4,13.76-4.44L594.3,382Z" style="fill:#263238"></path></g><g id="freepik--Yacht--inject-34"><path d="M178.8,286.54V259.22h62.84V200.76s-35.52-22.41-95.08-6.56l12-33.33,250.8-8.75,122.88,83.4-90.09,70.15L178.8,303.48Z" style="fill:#7A92CC"></path><path d="M292.21,230.9c2.18,0,226.68-4.46,226.68-4.46L464.7,189.66H407.21s-63.3.63-84.06,16.92C299.85,224.87,292.21,230.9,292.21,230.9Z" style="fill:#263238"></path><polygon points="277.42 156.72 169.23 118.52 128.01 123.16 193.99 159.63 277.42 156.72" style="fill:#7A92CC"></polygon><polygon points="193.99 159.63 277.64 156.31 183.73 153.96 193.99 159.63" style="fill:#7A92CC"></polygon><g style="opacity:0.2"><polygon points="193.99 159.63 277.64 156.31 183.73 153.96 193.99 159.63"></polygon></g><polygon points="241.64 259.22 256.9 259.22 256.9 209.26 241.64 200.75 241.64 259.22" style="fill:#7A92CC"></polygon><g style="opacity:0.2"><polygon points="241.64 259.22 256.9 259.22 256.9 209.26 241.64 200.75 241.64 259.22"></polygon></g><polyline points="146.56 194.2 150.93 193.1 164.62 160.66 158.59 160.87" style="fill:#7A92CC"></polyline><g style="opacity:0.2"><polyline points="146.56 194.2 150.93 193.1 164.62 160.66 158.59 160.87"></polyline></g><polygon points="417.48 189.66 389.85 228.99 401.84 228.76 431.32 189.66 417.48 189.66" style="fill:#fafafa"></polygon><polygon points="436.58 189.66 407.1 228.65 410.58 228.58 439.71 189.66 436.58 189.66" style="fill:#fafafa"></polygon><path d="M272.9,280.63a1.51,1.51,0,0,1-1.36-2.15l19-39.8a1.52,1.52,0,0,1,.82-.76c.39-.15,40-15.14,107.05-27.17,61.82-11.09,160.33-21.87,278.48-10.22a1.5,1.5,0,0,1,1.17,2.2l-18.78,35a1.5,1.5,0,0,1-2.65-1.42l17.72-33C557.55,192,460.2,202.71,399,213.7,336.49,224.91,298,238.67,293,240.52l-18.75,39.25A1.5,1.5,0,0,1,272.9,280.63Z" style="fill:#455a64"></path><rect x="610.46" y="219.95" width="46.44" height="1" transform="matrix(0.41, -0.91, 0.91, 0.41, 173.61, 708.8)" style="fill:#455a64"></rect><rect x="568.75" y="217.81" width="46.44" height="1" transform="translate(150.89 669.46) rotate(-65.89)" style="fill:#455a64"></rect><rect x="529.7" y="218.24" width="46.44" height="1" transform="translate(127.4 634.08) rotate(-65.89)" style="fill:#455a64"></rect><rect x="449.97" y="223.6" width="46.44" height="1" transform="translate(75.35 564.47) rotate(-65.89)" style="fill:#455a64"></rect><rect x="490.87" y="218.37" width="46.44" height="1" transform="translate(104.31 598.7) rotate(-65.89)" style="fill:#455a64"></rect><rect x="410.74" y="227.32" width="46.44" height="1" transform="translate(48.74 530.86) rotate(-65.89)" style="fill:#455a64"></rect><rect x="370.13" y="233.14" width="46.44" height="1" transform="translate(19.42 497.25) rotate(-65.89)" style="fill:#455a64"></rect><rect x="329.07" y="242.77" width="46.44" height="1" transform="translate(-13.58 465.6) rotate(-65.91)" style="fill:#455a64"></rect><path d="M179.43,333.31c30.27,2.57,60.35,8.76,90.71,7.88,34.78-1,69.12-11.31,103.86-9.13,33,2.07,64.85,15.33,97.88,14.51,40.53-1,81.18-23.07,120-11.2,3.88,1.19,7.8,2.71,11.73,4.25l64.55-104.2S350.54,221.29,254,290.28H93.17l12,50.05C128.43,331.79,154.48,331.2,179.43,333.31Z" style="fill:#7A92CC"></path><g style="opacity:0.1"><path d="M179.43,333.31c30.27,2.57,60.35,8.76,90.71,7.88,34.78-1,69.12-11.31,103.86-9.13,33,2.07,64.85,15.33,97.88,14.51,40.53-1,81.18-23.07,120-11.2,3.88,1.19,7.8,2.71,11.73,4.25l64.55-104.2S350.54,221.29,254,290.28H93.17l12,50.05C128.43,331.79,154.48,331.2,179.43,333.31Z"></path></g><path d="M473.24,346.51c40.53-1,81.18-23.07,120-11.21,3.53,1.08,7.1,2.44,10.67,3.84L636,287.23S527,326.16,423.31,340.12C439.86,343.68,456.4,346.92,473.24,346.51Z" style="fill:#7A92CC"></path><path d="M116.86,337c-7.69-.56-12.2-.85-12.68-.71l1.06,4.42A114.58,114.58,0,0,1,116.86,337Z" style="fill:#7A92CC"></path><g style="opacity:0.30000000000000004"><path d="M473.24,346.51c40.53-1,81.18-23.07,120-11.21,3.53,1.08,7.1,2.44,10.67,3.84L636,287.23S527,326.16,423.31,340.12C439.86,343.68,456.4,346.92,473.24,346.51Z"></path><path d="M116.86,337c-7.69-.56-12.2-.85-12.68-.71l1.06,4.42A114.58,114.58,0,0,1,116.86,337Z"></path></g><ellipse cx="416.18" cy="273.58" rx="18.59" ry="18.74" style="fill:#263238"></ellipse><g style="clip-path:url(#freepik--clip-path--inject-34)"><polygon points="426.57 257.46 401.73 288.54 405.19 291.47 430.21 260.22 426.57 257.46" style="fill:#455a64"></polygon><polygon points="408.94 293.43 432.28 262.52 433.25 263.91 410.19 294.11 408.94 293.43" style="fill:#455a64"></polygon></g><ellipse cx="506.73" cy="273.58" rx="18.59" ry="18.74" style="fill:#263238"></ellipse><g style="clip-path:url(#freepik--clip-path-2--inject-34)"><polygon points="517.12 257.46 492.27 288.54 495.73 291.47 520.76 260.22 517.12 257.46" style="fill:#455a64"></polygon><polygon points="499.48 293.43 522.82 262.52 523.8 263.91 500.73 294.11 499.48 293.43" style="fill:#455a64"></polygon></g><g style="clip-path:url(#freepik--clip-path--inject-34)"><polygon points="426.57 257.46 401.73 288.54 405.19 291.47 430.21 260.22 426.57 257.46" style="fill:#fafafa"></polygon><polygon points="408.94 293.43 432.28 262.52 433.25 263.91 410.19 294.11 408.94 293.43" style="fill:#fafafa"></polygon></g><ellipse cx="590.3" cy="273.58" rx="18.59" ry="18.74" style="fill:#263238"></ellipse><g style="clip-path:url(#freepik--clip-path-4--inject-34)"><polygon points="600.69 257.46 575.85 288.54 579.3 291.47 604.33 260.22 600.69 257.46" style="fill:#455a64"></polygon><polygon points="583.06 293.43 606.39 262.52 607.37 263.91 584.31 294.11 583.06 293.43" style="fill:#455a64"></polygon></g><g style="clip-path:url(#freepik--clip-path-4--inject-34)"><polygon points="600.69 257.46 575.85 288.54 579.3 291.47 604.33 260.22 600.69 257.46" style="fill:#fafafa"></polygon><polygon points="583.06 293.43 606.39 262.52 607.37 263.91 584.31 294.11 583.06 293.43" style="fill:#fafafa"></polygon></g><g style="clip-path:url(#freepik--clip-path-2--inject-34)"><polygon points="517.12 257.46 492.27 288.54 495.73 291.47 520.76 260.22 517.12 257.46" style="fill:#fafafa"></polygon><polygon points="499.48 293.43 522.82 262.52 523.8 263.91 500.73 294.11 499.48 293.43" style="fill:#fafafa"></polygon></g><path d="M241.72,321.45c0,2.87-22.58,5.2-50.42,5.2s-50.43-2.33-50.43-5.2,22.58-5.21,50.43-5.21S241.72,318.57,241.72,321.45Z" style="fill:#7A92CC"></path><g style="opacity:0.2"><path d="M241.72,321.45c0,2.87-22.58,5.2-50.42,5.2s-50.43-2.33-50.43-5.2,22.58-5.21,50.43-5.21S241.72,318.57,241.72,321.45Z"></path></g></g><g id="freepik--Sun--inject-34"><circle cx="470.8" cy="97.67" r="15.83" transform="translate(266.87 533.11) rotate(-76.63)" style="fill:#7A92CC"></circle><path d="M471.88,135.59c-.29,0-.52-4.39-.52-9.81s.23-9.81.52-9.81.52,4.39.52,9.81S472.16,135.59,471.88,135.59Z" style="fill:#7A92CC"></path><path d="M509.25,94.89c0,.29-4,.52-9,.52s-9-.23-9-.52,4-.52,9-.52S509.25,94.61,509.25,94.89Z" style="fill:#7A92CC"></path><path d="M469.46,62.36c.29,0,.52,3.68.52,8.2s-.23,8.2-.52,8.2-.52-3.67-.52-8.2S469.17,62.36,469.46,62.36Z" style="fill:#7A92CC"></path><path d="M448.49,98.66c0,.29-3.91.52-8.74.52S431,99,431,98.66s3.92-.52,8.74-.52S448.49,98.37,448.49,98.66Z" style="fill:#7A92CC"></path><path d="M456.82,111.83c.21.2-1.74,2.48-4.33,5.07s-4.87,4.54-5.08,4.34,1.74-2.47,4.34-5.07S456.62,111.63,456.82,111.83Z" style="fill:#7A92CC"></path><path d="M496.61,120.43c-.2.21-2.53-1.79-5.21-4.47s-4.67-5-4.47-5.2,2.54,1.79,5.21,4.47S496.81,120.23,496.61,120.43Z" style="fill:#7A92CC"></path><path d="M494.73,72.85c.2.2-1.56,2.29-3.93,4.67s-4.47,4.14-4.67,3.93,1.55-2.29,3.93-4.67S494.53,72.65,494.73,72.85Z" style="fill:#7A92CC"></path><path d="M456,84.14c-.21.2-1.94-1.2-3.87-3.13s-3.33-3.66-3.12-3.86,1.93,1.2,3.86,3.13S456.22,83.94,456,84.14Z" style="fill:#7A92CC"></path></g></svg>